<?xml version="1.0"?>
<svg xmlns="http://www.w3.org/2000/svg" viewBox="0 0 24 24">
    <path d="M 22 2 C 22 2 12.966 8.665 9 13 C 9.732 13.67 10.33 14.268 11 15 C 15.335 11.034 22 2 22 2 z M 6 12 L 5 14 C 5.391548 14 6.26504 14.599968 7.15625 15.40625 L 3.5625 19 C 3.5421944 18.999185 3.5205056 19 3.5 19 C 2.6715729 19 2 19.671573 2 20.5 C 2 21.328427 2.6715729 22 3.5 22 C 4.3284271 22 5 21.328427 5 20.5 C 5 20.479494 5.0008151 20.457806 5 20.4375 L 8.59375 16.84375 C 9.4000317 17.73496 10 18.608452 10 19 L 12 18 C 12 17 7 12 6 12 z"/>
</svg>
